# xmcd CD database file
#
# Track frame offsets:
#	150
#	20071
#	40028
#	60701
#
# Disc length: 1098 seconds
#
# Revision: 0
# Processed by: cddbd v1.5.2PL0 Copyright (c) Steve Scherf et al.
# Submitted via: NeoAudio 9.9.9
#
DISCID=2d044804
DTITLE=Bryony Morgan and the Megalomaniacs - Precious Ego EP
DYEAR=2009
DGENRE=Blues
TTITLE0=Precious Ego
TTITLE1=Megalomaniac
TTITLE2=Sinking Ship
TTITLE3=Ain't Got No Love Left
EXTD=YEAR: 2009
EXTT0=
EXTT1=
EXTT2=
EXTT3=
PLAYORDER=
